<svg width="110" height="38" viewBox="0 0 110 38" fill="none" xmlns="http://www.w3.org/2000/svg">
<path d="M56.2248 5.55078H60.1163V24.4253C60.1163 29.4021 57.801 32.8766 52.4318 32.8766C50.412 32.8766 48.8357 32.548 47.752 32.1724V28.5571C48.9343 29.0266 50.3629 29.2614 51.7913 29.2614C55.0918 29.2614 56.2248 27.3833 56.2248 24.6601V5.55078Z" fill="white"/>
<path d="M66.7248 4.26953C68.0963 4.26953 69.0698 5.16203 69.0698 6.75913C69.0698 8.30923 68.0963 9.24873 66.7248 9.24873C65.3532 9.24873 64.3799 8.35624 64.3799 6.75913C64.3799 5.20903 65.3532 4.26953 66.7248 4.26953ZM64.9993 12.2081H68.362V32.8763H64.9993V12.2081Z" fill="white"/>
<path d="M77.189 32.8766H73.7596V11.8839H77.189V15.5576C78.3942 13.0766 80.4331 11.3113 84.4186 11.5499V15.0805C79.9232 14.6034 77.189 15.987 77.189 20.4718V32.8766Z" fill="white"/>
<path d="M101.409 29.1196C100.129 31.8771 97.7057 33.3036 94.5972 33.3036C89.2476 33.3036 86.5504 28.5967 86.5504 22.4159C86.5504 16.5204 89.3849 11.5283 95.0084 11.5283C97.9347 11.5283 100.221 12.907 101.409 15.6172V11.9563H104.884V32.8756H101.409V29.1196ZM95.5114 29.9755C98.6206 29.9755 101.363 27.9311 101.363 23.2718V21.6077C101.363 16.9484 98.849 14.9039 95.8772 14.9039C91.9911 14.9039 89.9797 17.5664 89.9797 22.4159C90.0252 27.4556 91.9455 29.9755 95.5114 29.9755Z" fill="white"/>
<path d="M37.3697 2.13477H20.8915C20.8915 6.17093 24.2253 9.45619 28.321 9.45619H31.369V12.319C31.369 16.3551 34.7027 19.6404 38.7985 19.6404V3.54273C38.7985 2.74489 38.1793 2.13477 37.3697 2.13477Z" fill="white"/>
<path d="M29.2688 10.2471H12.7906C12.7906 14.2832 16.1244 17.5684 20.2202 17.5684H23.2681V20.4313C23.2681 24.4675 26.6019 27.7527 30.6976 27.7527V11.655C30.6976 10.9041 30.0784 10.2471 29.2688 10.2471Z" fill="white"/>
<path d="M21.1682 18.3594H4.68994C4.68994 22.494 8.0237 25.8593 12.1194 25.8593H15.1674V28.792C15.1674 32.9266 18.5013 36.292 22.5969 36.292V19.8016C22.5969 18.9844 21.9302 18.3594 21.1682 18.3594Z" fill="white"/>
</svg>
